<svg xmlns="http://www.w3.org/2000/svg" viewBox="0 0 80 24" role="img" aria-hidden="true">
  <title>Groq</title>
  <path fill="currentColor" d="M8.4 18.2c-3.5 0-5.9-2.2-5.9-5.8S4.9 6.6 8.4 6.6c2.4 0 4.1 1.1 4.8 2.9l-2.2.9c-.5-1.1-1.4-1.7-2.6-1.7-1.8 0-3 1.5-3 3.7s1.2 3.7 3 3.7c1.3 0 2.3-.7 2.8-1.9l2.2.8c-.8 2-2.6 3.2-5.1 3.2zm9.2-11.6h2.1v11.6h-2.1V6.6zm1.1-2.4c0 .8-.6 1.4-1.4 1.4s-1.4-.6-1.4-1.4.6-1.4 1.4-1.4 1.4.6 1.4 1.4zm6.1 2.4c2.8 0 4.7 1.9 4.7 4.7v.3h-7.2c.2 1.5 1.3 2.4 2.8 2.4 1.1 0 2-.5 2.5-1.4l1.8 1c-.9 1.5-2.5 2.3-4.4 2.3-3 0-5.1-2.1-5.1-5.2s2.1-5.1 4.9-5.1zm-2.8 3.8h5.1c-.2-1.3-1.2-2.1-2.5-2.1s-2.2.8-2.6 2.1zm11.2-3.8c1.6 0 2.8.7 3.4 1.9V6.6H48v11.6h-2.1v-1.8c-.6 1.2-1.8 1.9-3.4 1.9-2.8 0-4.8-2.1-4.8-5.1s2-5.1 4.8-5.1zm.3 8.6c1.6 0 2.8-1.2 2.8-3.1s-1.2-3.1-2.8-3.1-2.8 1.2-2.8 3.1 1.2 3.1 2.8 3.1z"/>
</svg>
