<svg xmlns="http://www.w3.org/2000/svg" viewBox="0 0 24 24" role="img" aria-hidden="true">
  <title>Pinecone</title>
  <path fill="currentColor" d="M12 2.5a1.2 1.2 0 1 1 0 2.4 1.2 1.2 0 0 1 0-2.4zM7.8 6.8a1.2 1.2 0 1 1 0 2.4 1.2 1.2 0 0 1 0-2.4zm8.4 0a1.2 1.2 0 1 1 0 2.4 1.2 1.2 0 0 1 0-2.4zM5.2 11.2a1.2 1.2 0 1 1 0 2.4 1.2 1.2 0 0 1 0-2.4zm13.6 0a1.2 1.2 0 1 1 0 2.4 1.2 1.2 0 0 1 0-2.4zM7.8 15.6a1.2 1.2 0 1 1 0 2.4 1.2 1.2 0 0 1 0-2.4zm8.4 0a1.2 1.2 0 1 1 0 2.4 1.2 1.2 0 0 1 0-2.4zM12 19.1a1.2 1.2 0 1 1 0 2.4 1.2 1.2 0 0 1 0-2.4z"/>
</svg>
